<?xml version="1.0" encoding="utf-8"?>
<!-- Generator: Adobe Illustrator 21.0.0, SVG Export Plug-In . SVG Version: 6.00 Build 0)  -->
<svg version="1.1" id="facebook-icon" xmlns="http://www.w3.org/2000/svg" xmlns:xlink="http://www.w3.org/1999/xlink" x="0px"
	 y="0px" viewBox="0 0 200 200" style="enable-background:new 0 0 200 200;" xml:space="preserve">
<style type="text/css">
	.st0{fill:#FFFFFF;}
</style>
<a href="https://www.facebook.com/MarineHeritageSociety" target="_blank">
<g id="facebook">
	<path id="f" class="st0" d="M87.2,27.8c6.2-6,15.2-8,23.6-8.3c8.9,0,17.8,0,26.7,0c0,9.4,0,18.8,0,28.2c-5.8,0-11.5,0-17.3,0
		c-3.7-0.2-7.4,2.5-8.1,6.2c-0.1,6.3,0,12.6,0,18.9c8.4,0,16.9,0,25.3,0c-0.6,9.1-1.7,18.2-3.1,27.2c-7.5,0.1-14.9,0-22.4,0
		c-0.1,26.8,0,53.7-0.1,80.5c-11.1,0-22.2,0-33.2,0c-0.2-26.8,0-53.7-0.1-80.5c-5.4-0.1-10.8,0-16.2,0c0-9,0-18,0-27.1
		c5.4-0.1,10.8,0,16.2,0c0.2-8.8-0.2-17.6,0.2-26.3C79.3,39.6,82,32.6,87.2,27.8z"/>
</g>
</a>
</svg>
