<?xml version="1.0" encoding="utf-8"?>
<!-- Generator: Adobe Illustrator 21.0.0, SVG Export Plug-In . SVG Version: 6.00 Build 0)  -->
<svg version="1.1" id="key-icon" xmlns="http://www.w3.org/2000/svg" xmlns:xlink="http://www.w3.org/1999/xlink" x="0px" y="0px"
	 viewBox="0 0 99.9 92.7" style="enable-background:new 0 0 99.9 92.7;" xml:space="preserve">
<style type="text/css">
	.st0{fill:#FFFFFF;}
</style>
<path class="st0" d="M71.4,0C55.6,0,42.9,12.8,42.9,28.5c0,2.2,0.2,4.3,0.7,6.3L0,78.4v7.1l7.1,7.1h14.3l7.1-7.1v-7.1h7.1v-7.1h7.1
	v-7.1H57l7.9-7.9c2.1,0.5,4.2,0.7,6.5,0.7c15.7,0,28.5-12.8,28.5-28.5S87.1,0,71.4,0z M42.8,49.9L7.1,85.6v-7.1l35.6-35.6V49.9z
	 M78.4,28.5c-3.9,0-7.1-3.2-7.1-7.1s3.2-7.1,7.1-7.1c3.9,0,7.1,3.2,7.1,7.1S82.3,28.5,78.4,28.5z"/>
</svg>
