<?xml version="1.0" encoding="utf-8"?>
<!-- Generator: Adobe Illustrator 21.0.0, SVG Export Plug-In . SVG Version: 6.00 Build 0)  -->
<svg version="1.1" id="YouTube_Logo" xmlns="http://www.w3.org/2000/svg" xmlns:xlink="http://www.w3.org/1999/xlink" x="0px"
	 y="0px" viewBox="0 0 500 200" style="enable-background:new 0 0 500 200;" xml:space="preserve">
<style type="text/css">
	.st0{fill:#FFFFFF;}
</style>
<a href="https://www.youtube.com/channel/UC5BwiLq9hSIl9BZRq7Q4UNA?feature=watch" target="_blank">
<g id="You">
	<path id="u_2_" class="st0" d="M191.4,159.7h-17.5v-10.2c-6.6,7.7-12.3,11.4-18.5,11.4c-5.4,0-9.1-2.6-11-7.1
		c-1.1-2.8-1.9-7.2-1.9-13.6V66.4h17.5v69.2c0,3.9,0,5.5,0,6.5c0.4,2.6,1.5,3.5,3.8,3.5c3.3,0,6.4-3,10.1-8.1V66.4h17.5V159.7z"/>
	<path id="o_2_" class="st0" d="M129.6,96.9c0-10-2-17.4-5.5-22.2c-4.7-6.4-12-9-19.4-9c-8.4,0-14.7,2.6-19.4,9
		C81.7,79.5,79.8,87,79.8,97v33.1c0,9.9,1.8,16.7,5.4,21.4c4.7,6.4,12.2,9.7,19.6,9.7s15-3.3,19.8-9.7c3.5-4.7,5.2-11.5,5.2-21.4
		V96.9z M112.1,132c0.9,9.2-1.9,13.8-7.4,13.8s-8.3-4.6-7.4-13.8V95.1c-0.9-9.2,1.9-13.6,7.4-13.6s8.3,4.3,7.4,13.6V132z"/>
	<path id="y_2_" class="st0" d="M60.4,108.9v50.8H41.9v-50.8c0,0-19.1-62.2-23.1-73.8h19.4l12.9,48.6l12.9-48.6h19.4L60.4,108.9z"/>
</g>
<g id="Tube">
	<g>
		<path class="st0" d="M371.8,81.3c-2.8,0-5.9,1.5-8.7,4.2v55.9c2.8,2.8,6,4.2,8.7,4.2c4.8,0,7-3.5,7-12.7V93.3
			C378.8,84,376.6,81.3,371.8,81.3z"/>
		<path class="st0" d="M440.6,92.4c0-8.5-2.2-11.1-7.8-11.1s-7.9,2.3-7.9,11v10.2h15.7V92.4z"/>
		<path class="st0" d="M478.5,45.1c0,0-2.7-18.9-11-27.2C457,7,445.3,6.9,439.9,6.3c-38.6-2.8-96.5-2.8-96.5-2.8h-0.1
			c0,0-57.9,0-96.5,2.8c-5.4,0.6-17.2,0.7-27.6,11.6c-8.3,8.3-11,27.2-11,27.2s-2.8,22.2-2.8,44.4v20.9c0,22.2,2.8,44.4,2.8,44.4
			s2.7,18.9,11,27.2c10.5,10.9,24.3,10.6,30.4,11.7c22.1,2.1,93.7,2.8,93.7,2.8s57.9-0.1,96.5-2.9c5.4-0.6,17.2-0.7,27.6-11.6
			c8.3-8.3,11-27.2,11-27.2s2.8-22.2,2.8-44.4V89.5C481.3,67.4,478.5,45.1,478.5,45.1z M266.2,159.7h-18.5V53.5h-19.4V36h58.1v17.5
			h-20.3V159.7z M332.7,159.7h-17.5v-10.2c-6.6,7.7-12.3,11.4-18.5,11.4c-5.4,0-9.1-2.6-11-7.1c-1.1-2.8-1.9-7.2-1.9-13.6V67.4h17.5
			v68.3c0,3.9,0,5.5,0,6.5c0.4,2.6,1.5,3.5,3.8,3.5c3.3,0,6.4-3,10.1-8.1V67.4h17.5V159.7z M396.3,132c0,8.5-0.7,14.6-1.8,18.5
			c-2.2,6.8-7.1,10.4-13.8,10.4c-5.9,0-12-3.6-17.6-10.5v9.3h-16.6V36h16.6v40.3c5.4-6.6,11.5-10.4,17.6-10.4
			c6.6,0,11.2,3.9,13.4,10.7c1.1,3.7,2.2,9.7,2.2,18.5V132z M433,145.6c4.2,0,6.6-2.2,7.5-6.7c0.2-0.9,0.1-4.9,0.1-11.6h17.5v2.6
			c0,5.4-0.5,9.2-0.6,10.9c-0.6,3.7-1.8,7-3.9,10c-4.6,6.7-11.4,10-20.2,10c-8.8,0-15.4-3.1-20.2-9.4c-3.5-4.6-5.8-11.4-5.8-21.3
			V97.6c0-9.9,2-17.4,5.6-22.2c4.8-6.3,11.4-9.7,20-9.7c8.4,0,15,3.3,19.8,9.7c3.5,4.7,5.4,11.9,5.4,21.7V116H425v16.6
			C424.9,141.4,427.3,145.6,433,145.6z"/>
	</g>
</g>
</a>
</svg>
